<svg xmlns="http://www.w3.org/2000/svg" viewBox="0 0 60 40" role="img" aria-label="United States flag">
  <rect width="60" height="40" rx="6" fill="#fff"/>
  <g fill="#b22234">
    <rect y="0" width="60" height="3.08"/>
    <rect y="6.15" width="60" height="3.08"/>
    <rect y="12.31" width="60" height="3.08"/>
    <rect y="18.46" width="60" height="3.08"/>
    <rect y="24.62" width="60" height="3.08"/>
    <rect y="30.77" width="60" height="3.08"/>
    <rect y="36.92" width="60" height="3.08"/>
  </g>
  <rect width="27" height="21.54" fill="#3c3b6e"/>
  <g fill="#fff">
    <circle cx="4" cy="3.4" r=".75"/><circle cx="8" cy="3.4" r=".75"/><circle cx="12" cy="3.4" r=".75"/><circle cx="16" cy="3.4" r=".75"/><circle cx="20" cy="3.4" r=".75"/><circle cx="24" cy="3.4" r=".75"/>
    <circle cx="6" cy="6.8" r=".75"/><circle cx="10" cy="6.8" r=".75"/><circle cx="14" cy="6.8" r=".75"/><circle cx="18" cy="6.8" r=".75"/><circle cx="22" cy="6.8" r=".75"/>
    <circle cx="4" cy="10.2" r=".75"/><circle cx="8" cy="10.2" r=".75"/><circle cx="12" cy="10.2" r=".75"/><circle cx="16" cy="10.2" r=".75"/><circle cx="20" cy="10.2" r=".75"/><circle cx="24" cy="10.2" r=".75"/>
    <circle cx="6" cy="13.6" r=".75"/><circle cx="10" cy="13.6" r=".75"/><circle cx="14" cy="13.6" r=".75"/><circle cx="18" cy="13.6" r=".75"/><circle cx="22" cy="13.6" r=".75"/>
    <circle cx="4" cy="17" r=".75"/><circle cx="8" cy="17" r=".75"/><circle cx="12" cy="17" r=".75"/><circle cx="16" cy="17" r=".75"/><circle cx="20" cy="17" r=".75"/><circle cx="24" cy="17" r=".75"/>
  </g>
</svg>
